<?xml version="1.0" encoding="UTF-8"?>
<svg version="1.1" viewBox="0 0 2000 2000" width="500" height="500" xmlns="http://www.w3.org/2000/svg">
<path transform="translate(753,1327)" d="m0 0h46l21 2 23 5 30 10 25 12 18 12 14 11 10 9 8 7 11 11 11 15 13 19 2 1h30l9-12 10-15 12-14 16-16 11-9 15-11 24-14 21-9 23-7 25-5 21-2h43l24 2 28 5 31 7 49 16 31 11 8 1 330-27 10-1h10l9 10 11 14 14 17 11 14 1 3-2 1-109 3-640 16h-16l-2 9-8 22-6 2h-61l-3-1-10-28-1-3-85-3-175-4-101-3-65-1-266-7-66-2-9-1 3-5 14-17 11-14 13-16 5-6 35 2 104 9 37 3 57 5 67 5 44 4h11l26-8 31-12 26-8 33-8 33-5zm446 29-26 2-33 7-25 8-21 9-14 8-11 7v2l222-18 40-3-3-3-26-8-31-7-23-3-14-1zm-436 1-27 3-26 5-28 7-13 4-1 2 54 4 181 15 27 2-4-4-22-12-25-11-19-6-25-5-24-3-13-1z" fill="#5A3809"/>
<path transform="translate(373,1096)" d="m0 0 4 2 9 5 15 10 19 10 20 8 18 6 21 5 21 3 12 1h24l27-4 22-6 12-4 7-1 17 8 22 6 24 3 32 2h17l36-2h32l22 2 24 5 33 11 16 8 16 9 16 11 10 8 10 9 12 12 11 14 11 16 9 16 9 19 8 24 5 22-1 7h-1l-3-14-9-27-11-23-12-19-10-13-9-10-16-16-14-11-14-10-15-9-20-9-27-9-16-4-19-3-11-1h-38l-26 2h-26l-39-3-24-5-20-6-12-6-8 1-26 6-16 3-15 1h-14l-25-2-23-4-20-6-22-8-22-11-18-12-15-12h-2l7 11 16 20 12 13 7 7 11 9 14 11 16 10 26 14 21 8 25 7 26 5 27 3h49l30-3 36-6 25-4 10-1h37l30 3 22 4 24 8 21 9 16 9 15 10 12 9 11 9 12 11 13 14 11 14 10 14 13 21 13 25 2 4-1 3-12-19-12-16-9-11-14-15-8-7-12-11-16-12-17-11-22-11-27-11-20-6-25-5-15-2-15-1h-40l-30 4-35 6-26 3-14 1h-21l-29-2-33-5-20-5-28-11-21-11-18-12-14-11-16-15-15-16-11-14-12-18-12-21-4-9z" fill="#5B3809"/>
<path transform="translate(254,1188)" d="m0 0 32 32 14 11 18 13 14 9 24 13 28 11 26 8 24 5 29 3h33l30-2 36-5 34-7 57-16 27-7 25-5 22-3 16-1h30l26 2 22 4 23 6 22 8 19 9 20 12 14 10 11 9 10 9 18 18 13 17 6 7 8 12 8 11 3 5-1 2-8-10-11-12-8-9-2-1v-2h-2v-2l-4-2-7-7-11-9-15-11-23-13-21-10-21-8-19-5-27-5-23-3h-39l-33 3-27 4-30 7-64 18-28 6-25 4-29 3-15 1-31-1-20-2-20-4-28-8-28-11-21-11-18-12-13-10-13-11-12-11-15-15-18-22-10-14z" fill="#5B3809"/>
<path transform="translate(1742,1191)" d="m0 0v3l-4 6-11 14-9 10-7 8-24 24-11 9-13 10-20 13-21 11-31 12-29 8-16 3-21 2-28 1-29-2-32-4-30-6-44-12-32-9-31-7-31-4-24-2h-39l-29 4-31 6-28 10-20 9-18 10-21 14-13 11-8 7-7 6-7 8-11 12-8 10v-3l7-11 10-14 13-16 8-10 24-24 14-11 13-9 15-9 19-10 24-9 21-6 26-5 27-2h32l36 4 29 6 27 7 49 14 37 8 38 5 29 2h34l27-3 20-4 19-5 28-10 20-9 23-13 17-12 19-14 13-12z" fill="#5B3809"/>
<path transform="translate(851,1506)" d="m0 0h60l2 3 6 36 14 82 1 3 3 1v-124l1-1h36l2 1v175l-1 1-16 1h-42l-3-1-4-17-14-84-5-23-3-1 1 94v30l-1 1-7 1h-27l-4-2v-175z" fill="#AE7218"/>
<path transform="translate(320,1274)" d="m0 0 6 4 13 10 20 12 24 12 23 9 22 6 30 5 24 2h22l34-3 35-6 27-6 37-12 31-9 37-8 29-4 26-2h27l23 2 28 5 26 8 20 9 19 10 16 11 16 13 12 11 10 10 9 11 13 18 10 16 6 9-1 3-11-12-9-11-13-13-8-7-15-12-16-11-16-9-23-11-24-8-28-6-29-4h-42l-29 3-24 4-26 6-42 12-24 6-39 7-25 3-27 1h-23l-22-2-27-4-18-4-30-10-17-8-17-10-14-10-11-9-14-12-11-13z" fill="#5B3809"/>
<path transform="translate(1678,1273)" d="m0 0 2 1-11 13-7 7-8 7-10 8-17 12-22 12-19 8-25 8-20 4-31 4-13 1h-27l-23-1-31-4-28-5-25-6-43-12-19-5-27-5-22-3-13-1h-43l-30 4-28 6-21 7-18 8-21 11-12 8-10 8-11 9-12 11-16 16-9 11-6 8-2-1 11-18 16-24 13-16 21-21 20-16 18-11 23-12 24-9 19-5 24-4 24-2h27l25 2 34 5 35 8 43 13 29 9 40 8 34 4 16 1h20l32-3 27-5 20-6 27-11 25-13 14-9 9-7z" fill="#5B3809"/>
<path transform="translate(1330,1506)" d="m0 0h70l3 8 18 90 10 45 6 26v8l-14 1h-23l-3-7-6-26-1-1h-52l-5 27-2 6-9 1h-22l-7-1v-10l14-61 18-90 3-14zm34 27-3 5-11 49-6 29 1 5 1 1h37l2-1v-8l-12-57-5-20-2-3z" fill="#AE7218"/>
<path transform="translate(478,1504)" d="m0 0h23l16 3 16 8 10 10 7 14 2 9v55l1 28-2 17-4 11-6 9-7 7-14 7-18 4h-23l-14-3-12-5-9-7-7-8-6-13-2-8v-96l4-13 6-10 5-5 7-6 11-5zm5 27-7 4-5 7-2 8-1 32v46l2 16 4 8 6 5 6 2h10l9-4 4-5 3-10v-90l-4-11-8-7-2-1z" fill="#AE7218"/>
<path transform="translate(1613,1506)" d="m0 0h36l2 2v72l45 1v-73l2-2h34l3 1v176l-3 1h-34l-2-3-1-72-44-1v73l-1 2-3 1h-33l-2-2v-175z" fill="#AE7217"/>
<path transform="translate(1622,1102)" d="m0 0 1 4-12 20-10 15-10 13-9 11-24 24-11 9-21 14-16 9-15 7-19 7-18 5-23 4-26 3-17 1h-22l-32-3-36-6-27-4-9-1h-40l-32 3-27 6-27 9-27 12-14 8-12 8-16 12-14 12-18 18-1 2h-2l-2 4-9 10-9 13-11 17-3 5-1-2 8-17 6-10 6-11 16-24 10-13 9-10 7-8 4-5 11-9 13-11 15-10 18-11 12-6 28-11 25-6 24-3 13-1h37l23 3 35 6 32 4 12 1h48l20-2 33-6 25-7 21-8 27-14 18-12 16-13 10-9 17-17 11-14 8-11z" fill="#5B3809"/>
<path transform="translate(702,1506)" d="m0 0h35l2 1 1 128 2 10 4 8 5 4 6 2h8l9-3 5-6 3-11 1-127 2-6h36l2 1v36l-2 96-3 16-6 12-5 6-10 7-11 4-15 3h-19l-12-2-13-5-11-8-7-9-5-11-2-8-1-18-1-73v-46z" fill="#AE7217"/>
<path transform="translate(265,1506)" d="m0 0h36l2 2 13 66 10 48 6 26 1 2h2l12-55 17-84 2-5h36l2 1-1 12-12 52-12 57-10 51-2 4-7 1h-57l-3-1-4-16-15-75-12-54-5-21-1-8z" fill="#AE7218"/>
<path transform="translate(1154,1506)" d="m0 0h109l4 1v24l-1 1-50 1h-25v47l41 1 20 1 2 4v15l-1 6-2 1h-60v42l1 6 70 1 5 2v22l-1 2-3 1h-109l-2-2v-175z" fill="#AE7217"/>
<path transform="translate(1511,1504)" d="m0 0h24l15 3 11 5 10 7 8 11 5 13 1 4v10l-2 2h-36l-6-18-6-7-4-2h-15l-8 5-4 8-1 5v89l3 10 5 6 7 3h11l10-5 4-5 5-16 5-2 31 1 1 1v10l-4 15-6 10-8 8-14 7-18 4h-23l-17-4-12-6-10-9-7-12-4-13v-96l4-13 7-12 11-9 11-5z" fill="#AF7318"/>
<path transform="translate(992,232)" d="m0 0h6l4 7 2 8 1 18v59l-1 414-1 59-2 49-1 135-4 1-3-5-2-21-2-44-1-71-1-308-1-30-2-107v-133l2-18 3-10z" fill="#EFB118"/>
<path transform="translate(868,388)" d="m0 0h7l5 5 5 14 5 27 8 63 16 144 10 85 4 38 6 66 7 66 3 26 3 28 1 14v18l-3-1-5-15-7-36-8-57-7-57-14-106-15-118-10-78-13-89-2-15v-18z" fill="#F3B519"/>
<path transform="translate(1e3 1506)" d="m0 0h120l2 1 1 3v19l-2 3-40 2-1 36v113l-21 1h-12l-5-1-1-3v-129l-1-17-19-1h-11l-10-1-2-6v-13z" fill="#AE7218"/>
<path transform="translate(1125,424)" d="m0 0 9 1 2 2v16l-2 25-8 57-8 59-7 45-13 88-8 53-19 115-11 68-5 27-3 5-4-1v-27l9-60 3-24 10-84 7-53 9-64 7-49 8-64 8-65 8-49 4-14 3-6z" fill="#F2B418"/>
<path transform="translate(580,1506)" d="m0 0h35l3 1v61l-1 84v4l53 1 5 1 1 4v14l-1 7-16 1h-77l-3-3-1-26v-127l1-21z" fill="#AF7318"/>
<path transform="translate(987,1014)" d="m0 0h26l30 2 35 5 40 10 25 9 23 10 16 8 23 13 21 14 16 12 15 13 12 11 11 11h-3l-21-16-33-22-12-7-32-16-25-11-40-13-34-8-27-4-19-2-16-1h-37l-25 2-30 4-32 7-33 10-24 9-30 14-25 13-19 12-14 10-12 9-16 13-2-1 24-24 11-9 8-7 18-13 21-13 18-10 16-8 28-12 27-9 33-8 34-5z" fill="#F5B719"/>
<path transform="translate(373,1096)" d="m0 0 4 2 9 5 15 10 19 10 20 8 18 6 21 5 21 3 12 1h24l27-4 22-6 12-4 7-1 17 8 22 6 24 3 32 2h17l36-2h32l22 2 24 5 33 11 16 8 16 9 16 11 10 8 10 9 12 12 11 14 11 16 9 16 9 19 8 24 5 22-1 7h-1l-3-14-9-27-11-23-12-19-10-13-9-10-16-16-14-11-14-10-15-9-20-9-27-9-16-4-19-3-11-1h-38l-26 2h-26l-39-3-24-5-20-6-12-6-8 1-26 6-16 3-15 1h-14l-25-2-23-4-20-6-22-8-22-11-18-12-15-12h-2l1 6-3-4z" fill="#5E3A09"/>
<path transform="translate(1626,1094)" d="m0 0v3l-1 2h-3v2l-16 11-15 10-23 12-20 8-19 6-26 6-26 3h-14l-27-3-29-7-7-2-5 1-12 5-15 5-20 4-21 3-12 1h-43l-27-1h-41l-17 2-26 6-18 6-28 13-18 11-13 10-10 9-8 7-10 10-9 11-12 17-12 21-9 20-7 21-3 10h-1l1-12 6-22 7-19 8-16 9-16 12-17 6-8h2l2-4 11-12 8-7 13-11 21-14 15-8 25-10 23-7 20-4 19-2h41l47 2 23-1 27-3 21-5 16-6 8-4 9 1 29 9 20 3 16 1h31l21-3 25-6 24-8 25-12 30-20z" fill="#5D3A09"/>
<path transform="translate(801,549)" d="m0 0 6 1 8 16 11 35 8 32 15 67 10 43 11 48 14 62 12 55 14 72 2 11-5 1-8-16-5-16-7-30-19-81-17-69-11-44-9-38-18-67-12-43-5-22v-11z" fill="#F4B719"/>
<path transform="translate(1205,608)" d="m0 0h5l3 4 1 3-1 13-4 19-12 44-18 71-15 53-15 50-13 44-19 64-7 20-3 3-3-1v-8l6-29 15-64 12-51 13-49 16-64 11-48 14-45 7-20 6-8z" fill="#F4B619"/>
<path transform="translate(726,604)" d="m0 0h5l5 6 6 12 19 53 20 55 23 65 15 42 19 55 14 41 15 44 5 19v6l-4-1-14-32-11-29-14-39-26-65-15-39-15-40-12-31-24-60-9-24-4-15-2-12v-6z" fill="#F4B719"/>
<path transform="translate(675,716)" d="m0 0h6l5 5 8 11 15 29 14 29 13 29 15 33 16 35 11 23 9 17 11 23 11 22 9 20 8 16 6 14-5 1-10-15-13-21-14-25-10-18-12-22-14-27-21-42-10-19-12-23-10-18-17-33-11-25-2-7v-8z" fill="#F4B719"/>
<path transform="translate(1275,692)" d="m0 0 7 1 1 5-10 29-18 47-13 31-11 25-8 19-7 15-9 21-7 15-14 32-16 39-12 27-5 9-4 1-1-1v-8l6-19 25-65 8-20 6-17 14-35 6-16 18-47 14-36 9-21 10-19 7-9z" fill="#F4B619"/>
<path transform="translate(604,789)" d="m0 0 5 1 9 6 10 12 13 18 16 25 22 34 26 40 29 44 16 24 15 22 16 23 3 5-1 5-7-6-11-13-9-11-13-16-12-16-16-21-10-14-12-17-11-16-16-23-14-20-13-18-27-36-10-17-2-4v-8z" fill="#F4B719"/>
<path transform="translate(1386,852)" d="m0 0h8l3 3-2 9-8 11-11 13-7 8-9 10-13 15-12 13-11 11-2 3h-2l-2 4-40 40-8 7-25 25h-2l-2 4-23 23-5 1-1-3 9-14 11-14 9-10 7-8 8-8 7-8 9-9 7-8 7-7 7-8 11-12 7-8 9-10 9-11 12-13 9-11 11-13 9-10 7-8 7-6z" fill="#F4B618"/>
<path transform="translate(1057,449)" d="m0 0h7v30l-2 31-6 50-6 57-9 81-5 67-4 58-4 54-2 30-4 51-2 17-1 3-3-1v-26l3-44 2-34 4-60 4-54 4-48 6-63 8-96 2-27 3-30 4-45z" fill="#EEB018"/>
<path transform="translate(1336,776)" d="m0 0h6l3 2v7l-4 11-11 17-28 42-29 44-11 16-8 12-11 16-30 42-12 16-14 21-3 1v-8l8-16 17-29 46-69 11-17 11-18 13-22 12-20 10-16 16-24 4-5z" fill="#F4B719"/>
<path transform="translate(1750,1177)" d="m0 0 1 2-6 9-15 13-11 7-14 8-12 6-19 6-20 4-22 2h-23l-28-4-18-4-5 1-22 12-23 10-24 7-16 3-23 2h-22l-2-2 28-3 24-5 20-7 26-12 18-10 13-10 10 1 32 5 23 2h16l20-2 25-5 16-5 17-7 16-8 13-10z" fill="#5E3A09"/>
<path transform="translate(250,1179)" d="m0 0 4 2 11 8 13 8 16 8 19 7 16 4 22 3 14 1h24l35-5 14-3h6l18 12 14 8 21 10 31 10 21 4 25 3-1 2h-23l-29-3-23-5-18-6-25-12-11-7-3-2-9 1-26 5-18 2h-20l-18-1-20-4-24-8-19-9-12-8-10-9-2-1v-2l-4-2-7-6z" fill="#5E3A09"/>
<path transform="translate(933,446)" d="m0 0 5 1 1 1 7 50 4 42 5 95 2 46 8 111 3 38 5 79 3 45v21l-3-1-2-15-3-36-2-26-3-43-3-32-2-27-2-25-4-68-1-35-3-49-1-22-5-49-8-60-2-27v-13z" fill="#ECAE18"/>
<path transform="translate(1147,636)" d="m0 0 2 1-2 18-7 33-10 62-8 44-19 91-7 34-8 43-4 16-2 5-2-3 2-20 7-42 9-45 13-58 9-50 12-77 6-26 6-22z" fill="#F1B318"/>
<path transform="translate(848,559)" d="m0 0h5l3 9 5 26 6 38 7 35 10 47 8 44 12 72 11 73 7 49 4 23v3l-3-1-4-13-7-45-5-35-14-83-11-67-5-31-6-25-7-27-6-29-9-47-1-7z" fill="#EFB218"/>
<path transform="translate(784,652)" d="m0 0 4 1 6 15 9 28 20 69 17 64 13 51 14 49 12 40 6 22-1 3-3-3-15-46-17-56-9-32-15-60-14-47-15-48-12-42z" fill="#F4B618"/>
<path transform="translate(732,742)" d="m0 0 3 1 12 20 11 23 10 27 16 38 15 37 17 40 16 38 8 20 5 16v4l-4-2-6-12-11-27-15-37-17-42-8-19-20-46-9-20-7-14-13-28-5-13z" fill="#F5B719"/>
<path transform="translate(1219,713)" d="m0 0h4l-1 7-10 33-12 34-16 50-13 40-10 28-20 55-11 30-2 1 2-11 8-29 8-26 13-38 10-29 10-27 10-29 10-34 11-35 8-19z" fill="#F5B719"/>
<path transform="translate(680,820)" d="m0 0 5 1 10 14 8 14 8 16 13 23 17 29 8 13 17 28 14 24 13 23 10 18 3 6-1 3-6-7-16-26-15-25-14-23-8-13-15-24-28-46-16-29-7-15z" fill="#F4B71A"/>
<path transform="translate(1333,853)" d="m0 0h3v5l-7 10-14 18-9 11-28 35-10 13-12 15-7 9-16 21-10 13-9 12-4 5h-2l-2 4-3 1v2l-3 1 1-4 8-13 13-18 10-13 12-16 12-15 10-13 8-10 10-13 11-14 12-15 11-14 9-11z" fill="#F4B618"/>
<path transform="translate(1284,785)" d="m0 0h4l-1 7-8 17-13 23-15 28-14 26-9 16-15 28-13 23-12 23-12 22-4 4 1-8 16-32 12-22 13-24 9-16 8-16 8-15 11-23 12-23 9-16 8-16z" fill="#F4B618"/>
<path transform="translate(848,559)" d="m0 0h5l3 9 5 26 6 38 7 35 8 37v8l-3 2-6-29-7-26-7-32-10-52-1-7z" fill="#F3B518"/>
<path transform="translate(1653,1313)" d="m0 0 8 1 76 17 15 4 4 3h-19l-73-20-10-3z" fill="#67400B"/>
<path transform="translate(341,1314)" d="m0 0h7l-3 2-56 15-21 6-7 1h-17v-2l38-9z" fill="#67410B"/>
<path transform="translate(918,936)" d="m0 0 2 4 6 35v3l-3-1-4-13-4-27z" fill="#DC9F18"/>
<path transform="translate(913,910)" d="m0 0h2l2 9 2 17-4 1-3-21h2z" fill="#F4B618"/>
<path transform="translate(1626,1094)" d="m0 0v3l-1 2h-3v2l-16 11-4 3-5 1 1-3 16-10 11-8z" fill="#9D6614"/>
<path transform="translate(879,694)" d="m0 0h1l2 10v8l-3 2-3-15 1-4z" fill="#F5B719"/>
<path transform="translate(341,1314)" d="m0 0h7l-3 2-20 5 2-4z" fill="#6F460C"/>
<path transform="translate(1438,1258)" d="m0 0h5v1l7 1v1h-22l-2-2z" fill="#925E13"/>
<path transform="translate(373,1096)" d="m0 0 4 2 9 5v3l-7-5h-2l1 6-3-4z" fill="#AB7116"/>
<path transform="translate(973,958)" d="m0 0 2 3 1 6v8l-3-1z" fill="#F5B719"/>
<path transform="translate(922,966)" d="m0 0 2 1 2 11-3-1-3-10z" fill="#F5B719"/>
<path transform="translate(1653,1313)" d="m0 0 8 1 8 2-1 3-14-4z" fill="#6D450C"/>
<path transform="translate(993,1324)" d="m0 0 2 4 1 8-1 5h-1l-3-16z" fill="#835410"/>
<path transform="translate(1626,1094)" d="m0 0v3l-1 2h-3v2l-6 4h-2l2-4 9-6z" fill="#966213"/>
<path transform="translate(1012,1373)" d="m0 0v3l-8 10v-3l5-8z" fill="#8B5911"/>
<path transform="translate(348,1315)" d="m0 0 7 1 2 2-7-1z" fill="#794D0E"/>
<path transform="translate(1650,1316)" d="m0 0h3v2l-3-1z" fill="#AE7218"/>
<path transform="translate(1643,1317)" d="m0 0 3 1z" fill="#AE7218"/>
<path transform="translate(995,1420)" d="m0 0" fill="#AE7218"/>
<path transform="translate(1e3 1388)" d="m0 0" fill="#F5B719"/>
<path transform="translate(1e3 1387)" d="m0 0" fill="#AE7218"/>
<path transform="translate(997,1372)" d="m0 0" fill="#AE7218"/>
<path transform="translate(1e3 1338)" d="m0 0" fill="#AE7218"/>
<path transform="translate(319,1273)" d="m0 0" fill="#AE7218"/>
<path transform="translate(718,1135)" d="m0 0" fill="#F5B719"/>
<path transform="translate(1281,1134)" d="m0 0" fill="#F5B719"/>
<path transform="translate(1280,1133)" d="m0 0" fill="#F5B719"/>
</svg>
